<?xml version="1.0" encoding="UTF-8" standalone="no"?>
<!DOCTYPE svg PUBLIC "-//W3C//DTD SVG 1.1//EN" "http://www.w3.org/Graphics/SVG/1.1/DTD/svg11.dtd">
<svg width="100%" height="100%" viewBox="0 0 800 400" version="1.1" xmlns="http://www.w3.org/2000/svg" xmlns:xlink="http://www.w3.org/1999/xlink" xml:space="preserve" xmlns:serif="http://www.serif.com/" style="fill-rule:evenodd;clip-rule:evenodd;stroke-linejoin:round;stroke-miterlimit:2;">
    <g transform="matrix(25.4623,0,0,25.4623,-4337.97,-7149.93)">
        <path d="M177.904,291.433C177.904,291.496 177.863,291.578 177.781,291.679C177.062,292.535 176.107,292.962 174.915,292.962C173.697,292.962 172.708,292.546 171.951,291.714C171.212,290.91 170.843,289.894 170.843,288.667C170.843,287.48 171.205,286.472 171.927,285.644C172.681,284.777 173.64,284.343 174.804,284.343C176.07,284.343 177.062,284.732 177.781,285.509C177.859,285.595 177.898,285.671 177.898,285.738C177.898,285.812 177.762,286.087 177.491,286.564C177.219,287.041 177.048,287.308 176.978,287.367C176.947,287.398 176.908,287.414 176.861,287.414C176.841,287.414 176.744,287.335 176.568,287.179C176.357,286.992 176.15,286.845 175.947,286.74C175.638,286.583 175.318,286.505 174.986,286.505C174.412,286.505 173.953,286.72 173.609,287.15C173.292,287.548 173.134,288.041 173.134,288.626C173.134,289.22 173.292,289.718 173.609,290.121C173.953,290.558 174.412,290.777 174.986,290.777C175.326,290.777 175.648,290.703 175.953,290.554C176.152,290.457 176.355,290.32 176.562,290.144C176.734,289.996 176.83,289.921 176.849,289.921C176.888,289.921 176.927,289.943 176.966,289.986C177.029,290.056 177.199,290.3 177.476,290.718C177.761,291.152 177.904,291.39 177.904,291.433Z" style="fill:rgb(208,30,17);fill-rule:nonzero;stroke:rgb(147,13,3);stroke-width:0.27px;"/>
        <path d="M184.343,288.509L184.332,292.552C184.332,292.689 184.277,292.765 184.167,292.781C184.042,292.796 183.757,292.804 183.312,292.804C182.882,292.804 182.583,292.789 182.415,292.757C182.287,292.734 182.222,292.65 182.222,292.505C182.222,292.169 182.228,291.664 182.24,290.988C182.251,290.312 182.257,289.806 182.257,289.47C182.257,289.013 182.025,288.785 181.56,288.785C181.404,288.785 181.22,288.847 181.009,288.972C180.779,289.109 180.664,289.251 180.664,289.4L180.664,290.847C180.664,291.035 180.667,291.317 180.675,291.694C180.683,292.071 180.687,292.353 180.687,292.541C180.687,292.685 180.626,292.765 180.505,292.781C180.384,292.796 180.044,292.804 179.486,292.804C179.165,292.804 178.935,292.789 178.794,292.757C178.654,292.726 178.583,292.658 178.583,292.552C178.583,292.244 178.585,291.78 178.589,291.161C178.593,290.541 178.595,290.078 178.595,289.769C178.595,288.492 178.582,287.435 178.554,286.599C178.542,286.306 178.533,286.013 178.525,285.72C178.505,285.38 178.47,285.089 178.419,284.847C178.408,284.796 178.402,284.759 178.402,284.736C178.402,284.677 178.431,284.638 178.49,284.619C178.611,284.583 178.789,284.562 179.023,284.554C179.335,284.542 179.517,284.533 179.568,284.525C180.275,284.443 180.628,284.402 180.628,284.402C180.691,284.402 180.722,284.443 180.722,284.525C180.722,284.65 180.714,284.82 180.699,285.035C180.683,285.285 180.675,285.455 180.675,285.544C180.652,286.427 180.64,287.124 180.64,287.636C180.64,287.714 180.66,287.753 180.699,287.753C180.707,287.753 180.806,287.685 180.998,287.548C181.224,287.388 181.441,287.261 181.648,287.167C181.957,287.031 182.255,286.962 182.544,286.962C183.044,286.962 183.462,287.093 183.798,287.355C184.162,287.636 184.343,288.021 184.343,288.509Z" style="fill:rgb(208,30,17);fill-rule:nonzero;stroke:rgb(147,13,3);stroke-width:0.27px;"/>
        <path d="M187.619,285.714C187.619,286.394 187.236,286.734 186.47,286.734C186.142,286.734 185.871,286.648 185.656,286.476C185.421,286.289 185.304,286.035 185.304,285.714C185.304,285.41 185.425,285.16 185.667,284.964C185.89,284.785 186.158,284.695 186.47,284.695C186.775,284.695 187.039,284.787 187.261,284.97C187.499,285.166 187.619,285.414 187.619,285.714ZM187.466,290.068C187.466,290.353 187.472,290.778 187.484,291.342C187.496,291.907 187.501,292.33 187.501,292.611C187.501,292.693 187.453,292.742 187.355,292.757C187.222,292.781 186.923,292.792 186.458,292.792C185.99,292.792 185.689,292.781 185.556,292.757C185.47,292.742 185.417,292.716 185.398,292.681C185.39,292.666 185.386,292.607 185.386,292.505C185.386,292.236 185.392,291.831 185.404,291.29C185.415,290.749 185.421,290.341 185.421,290.068C185.421,288.958 185.378,288.076 185.292,287.419C185.285,287.357 185.281,287.316 185.281,287.296C185.281,287.218 185.333,287.179 185.439,287.179C185.548,287.179 185.715,287.191 185.94,287.214C186.165,287.238 186.333,287.249 186.447,287.249C186.56,287.249 186.73,287.24 186.957,287.22C187.183,287.201 187.353,287.191 187.466,287.191C187.56,287.191 187.607,287.23 187.607,287.308C187.607,287.324 187.603,287.361 187.595,287.419C187.509,288.181 187.466,289.064 187.466,290.068Z" style="fill:rgb(208,30,17);fill-rule:nonzero;stroke:rgb(147,13,3);stroke-width:0.27px;"/>
        <path d="M190.73,289.23C190.73,290.296 190.734,291.115 190.742,291.685C190.742,291.775 190.748,291.929 190.759,292.148C190.771,292.347 190.777,292.501 190.777,292.611C190.777,292.693 190.728,292.742 190.63,292.757C190.455,292.789 190.138,292.804 189.681,292.804C189.212,292.804 188.914,292.789 188.785,292.757C188.699,292.738 188.65,292.685 188.638,292.599L188.638,292.347C188.638,291.999 188.642,291.479 188.65,290.786C188.658,290.092 188.662,289.574 188.662,289.23C188.662,287.589 188.664,286.841 188.667,286.986C188.656,286.123 188.607,285.378 188.521,284.753C188.513,284.71 188.509,284.677 188.509,284.654C188.509,284.568 188.56,284.525 188.662,284.525L190.753,284.525C190.851,284.525 190.896,284.566 190.888,284.648L190.882,284.753C190.781,286.441 190.73,287.933 190.73,289.23Z" style="fill:rgb(208,30,17);fill-rule:nonzero;stroke:rgb(147,13,3);stroke-width:0.27px;"/>
        <path d="M194.123,285.714C194.123,286.394 193.74,286.734 192.974,286.734C192.646,286.734 192.374,286.648 192.16,286.476C191.925,286.289 191.808,286.035 191.808,285.714C191.808,285.41 191.929,285.16 192.171,284.964C192.394,284.785 192.662,284.695 192.974,284.695C193.279,284.695 193.542,284.787 193.765,284.97C194.003,285.166 194.123,285.414 194.123,285.714ZM193.97,290.068C193.97,290.353 193.976,290.778 193.988,291.342C193.999,291.907 194.005,292.33 194.005,292.611C194.005,292.693 193.957,292.742 193.859,292.757C193.726,292.781 193.427,292.792 192.962,292.792C192.494,292.792 192.193,292.781 192.06,292.757C191.974,292.742 191.921,292.716 191.902,292.681C191.894,292.666 191.89,292.607 191.89,292.505C191.89,292.236 191.896,291.831 191.908,291.29C191.919,290.749 191.925,290.341 191.925,290.068C191.925,288.958 191.882,288.076 191.796,287.419C191.789,287.357 191.785,287.316 191.785,287.296C191.785,287.218 191.837,287.179 191.943,287.179C192.052,287.179 192.219,287.191 192.444,287.214C192.668,287.238 192.837,287.249 192.951,287.249C193.064,287.249 193.234,287.24 193.46,287.22C193.687,287.201 193.857,287.191 193.97,287.191C194.064,287.191 194.111,287.23 194.111,287.308C194.111,287.324 194.107,287.361 194.099,287.419C194.013,288.181 193.97,289.064 193.97,290.068Z" style="fill:rgb(208,30,17);fill-rule:nonzero;stroke:rgb(147,13,3);stroke-width:0.27px;"/>
        <path d="M196.953,285.591C196.953,286.24 196.81,286.945 196.525,287.707C196.498,287.777 196.453,287.816 196.39,287.824C196.296,287.839 196.169,287.847 196.009,287.847C195.896,287.847 195.783,287.839 195.669,287.824C195.501,287.8 195.351,287.437 195.218,286.734C195.113,286.175 195.06,285.736 195.06,285.416L195.06,284.695C195.06,284.605 195.083,284.552 195.13,284.537C195.197,284.513 195.476,284.501 195.968,284.501C196.499,284.501 196.792,284.513 196.847,284.537C196.917,284.568 196.953,284.919 196.953,285.591Z" style="fill:rgb(208,30,17);fill-rule:nonzero;stroke:rgb(147,13,3);stroke-width:0.27px;"/>
        <path d="M201.312,288.017C201.312,288.056 201.283,288.109 201.224,288.175C201.115,288.148 201.005,288.134 200.896,288.134C200.665,288.134 200.472,288.185 200.316,288.287C200.128,288.404 200.035,288.57 200.035,288.785C200.035,288.921 200.134,289.095 200.333,289.306C200.634,289.623 200.82,289.835 200.89,289.945C201.089,290.242 201.189,290.56 201.189,290.9C201.189,291.099 201.15,291.31 201.072,291.533C200.982,291.779 200.869,291.958 200.732,292.072C200.443,292.322 200.105,292.533 199.718,292.705C199.3,292.884 198.915,292.974 198.564,292.974C198.486,292.974 198.311,292.762 198.04,292.338C197.768,291.915 197.632,291.656 197.632,291.562C197.632,291.527 197.654,291.505 197.697,291.498C197.97,291.447 198.246,291.396 198.523,291.345C198.867,291.236 199.039,291.056 199.039,290.806C199.039,290.634 198.939,290.435 198.74,290.208C198.384,289.814 198.199,289.605 198.183,289.582C197.984,289.3 197.884,289.003 197.884,288.691C197.884,288.105 198.181,287.607 198.775,287.197C199.306,286.833 199.874,286.652 200.48,286.652C200.542,286.652 200.697,286.862 200.943,287.282C201.189,287.702 201.312,287.947 201.312,288.017Z" style="fill:rgb(208,30,17);fill-rule:nonzero;stroke:rgb(147,13,3);stroke-width:0.27px;"/>
    </g>
    <g transform="matrix(7.20702,0,0,7.20702,-1172.27,-2035.17)">
        <g transform="matrix(12,0,0,12,170.521,292.757)">
            <path d="M0.912,-0.435C0.912,-0.434 0.882,-0.368 0.821,-0.238C0.76,-0.105 0.725,-0.031 0.716,-0.014C0.713,-0.008 0.711,-0.005 0.71,-0.004C0.709,-0.003 0.706,-0.001 0.701,0C0.693,0.002 0.67,0.003 0.632,0.003C0.596,0.003 0.575,0.002 0.567,0C0.56,-0.002 0.556,-0.003 0.555,-0.004C0.554,-0.005 0.552,-0.008 0.549,-0.013C0.547,-0.017 0.538,-0.04 0.521,-0.082L0.468,-0.218L0.414,-0.081C0.408,-0.065 0.399,-0.042 0.386,-0.013C0.383,-0.008 0.381,-0.004 0.379,-0.003C0.378,-0.002 0.374,-0.001 0.368,0C0.357,0.002 0.336,0.003 0.304,0.003C0.265,0.003 0.242,0.002 0.234,0C0.228,-0.001 0.224,-0.006 0.22,-0.014C0.093,-0.276 0.029,-0.417 0.029,-0.435C0.029,-0.461 0.03,-0.5 0.031,-0.552C0.033,-0.604 0.034,-0.643 0.034,-0.669C0.034,-0.68 0.037,-0.685 0.044,-0.685C0.063,-0.685 0.091,-0.684 0.128,-0.683C0.166,-0.681 0.194,-0.68 0.213,-0.68C0.22,-0.68 0.224,-0.677 0.224,-0.671C0.224,-0.645 0.223,-0.606 0.22,-0.553C0.218,-0.5 0.217,-0.461 0.217,-0.435C0.217,-0.425 0.229,-0.394 0.252,-0.342C0.274,-0.295 0.29,-0.263 0.299,-0.247C0.304,-0.238 0.307,-0.234 0.309,-0.234C0.312,-0.234 0.318,-0.25 0.329,-0.281C0.36,-0.368 0.375,-0.42 0.376,-0.436C0.377,-0.466 0.377,-0.504 0.376,-0.55C0.375,-0.617 0.375,-0.655 0.375,-0.665C0.375,-0.671 0.375,-0.675 0.376,-0.676C0.377,-0.677 0.381,-0.678 0.387,-0.679C0.404,-0.681 0.432,-0.682 0.473,-0.682C0.535,-0.682 0.566,-0.678 0.566,-0.669C0.566,-0.647 0.566,-0.613 0.564,-0.567C0.562,-0.523 0.562,-0.489 0.562,-0.466L0.562,-0.441C0.562,-0.424 0.579,-0.371 0.612,-0.282C0.624,-0.251 0.631,-0.236 0.633,-0.236C0.634,-0.236 0.638,-0.24 0.643,-0.249C0.652,-0.264 0.666,-0.296 0.687,-0.343C0.709,-0.395 0.72,-0.425 0.72,-0.435C0.72,-0.461 0.719,-0.501 0.717,-0.553C0.714,-0.606 0.713,-0.645 0.713,-0.671C0.713,-0.677 0.717,-0.68 0.724,-0.68C0.743,-0.68 0.772,-0.681 0.811,-0.683C0.849,-0.684 0.878,-0.685 0.897,-0.685C0.904,-0.685 0.907,-0.679 0.907,-0.666C0.907,-0.64 0.908,-0.601 0.909,-0.55C0.911,-0.499 0.912,-0.46 0.912,-0.435Z" style="fill:rgb(0,110,38);fill-rule:nonzero;"/>
        </g>
        <g transform="matrix(12,0,0,12,181.789,292.757)">
            <path d="M0.529,-0.354L0.528,-0.017C0.528,-0.006 0.523,0.001 0.514,0.002C0.504,0.003 0.48,0.004 0.443,0.004C0.407,0.004 0.382,0.003 0.368,0C0.357,-0.002 0.352,-0.009 0.352,-0.021C0.352,-0.049 0.353,-0.091 0.354,-0.147C0.354,-0.204 0.355,-0.246 0.355,-0.274C0.355,-0.312 0.336,-0.331 0.297,-0.331C0.284,-0.331 0.269,-0.326 0.251,-0.315C0.232,-0.304 0.222,-0.292 0.222,-0.28L0.222,-0.159C0.222,-0.144 0.222,-0.12 0.223,-0.089C0.224,-0.057 0.224,-0.034 0.224,-0.018C0.224,-0.006 0.219,0.001 0.209,0.002C0.199,0.003 0.171,0.004 0.124,0.004C0.097,0.004 0.078,0.003 0.066,0C0.055,-0.003 0.049,-0.008 0.049,-0.017C0.049,-0.043 0.049,-0.081 0.049,-0.133C0.05,-0.185 0.05,-0.223 0.05,-0.249C0.05,-0.355 0.049,-0.444 0.046,-0.513C0.045,-0.538 0.045,-0.562 0.044,-0.586C0.042,-0.615 0.039,-0.639 0.035,-0.659C0.034,-0.663 0.034,-0.667 0.034,-0.668C0.034,-0.673 0.036,-0.677 0.041,-0.678C0.051,-0.681 0.066,-0.683 0.085,-0.684C0.111,-0.685 0.127,-0.685 0.131,-0.686C0.19,-0.693 0.219,-0.696 0.219,-0.696C0.224,-0.696 0.227,-0.693 0.227,-0.686C0.227,-0.676 0.226,-0.661 0.225,-0.644C0.224,-0.623 0.223,-0.609 0.223,-0.601C0.221,-0.528 0.22,-0.469 0.22,-0.427C0.22,-0.42 0.222,-0.417 0.225,-0.417C0.226,-0.417 0.234,-0.423 0.25,-0.434C0.269,-0.447 0.287,-0.458 0.304,-0.466C0.33,-0.477 0.355,-0.483 0.379,-0.483C0.421,-0.483 0.455,-0.472 0.483,-0.45C0.514,-0.427 0.529,-0.395 0.529,-0.354Z" style="fill:rgb(0,110,38);fill-rule:nonzero;"/>
        </g>
        <g transform="matrix(12,0,0,12,188.591,292.757)">
            <path d="M0.511,-0.24C0.511,-0.166 0.489,-0.106 0.443,-0.06C0.398,-0.013 0.338,0.01 0.264,0.01C0.193,0.01 0.134,-0.013 0.087,-0.059C0.041,-0.104 0.018,-0.163 0.018,-0.234C0.018,-0.31 0.04,-0.371 0.084,-0.418C0.129,-0.465 0.189,-0.489 0.264,-0.489C0.338,-0.489 0.397,-0.466 0.443,-0.42C0.488,-0.374 0.511,-0.314 0.511,-0.24ZM0.351,-0.24C0.351,-0.266 0.343,-0.289 0.327,-0.308C0.311,-0.328 0.291,-0.338 0.265,-0.338C0.239,-0.338 0.218,-0.328 0.202,-0.308C0.186,-0.289 0.178,-0.266 0.178,-0.24C0.178,-0.214 0.186,-0.191 0.202,-0.172C0.218,-0.152 0.239,-0.142 0.265,-0.142C0.291,-0.142 0.312,-0.152 0.328,-0.172C0.343,-0.191 0.351,-0.214 0.351,-0.24Z" style="fill:rgb(0,110,38);fill-rule:nonzero;"/>
        </g>
        <g transform="matrix(12,0,0,12,197.937,292.757)">
            <path d="M0.682,-0.346C0.682,-0.25 0.651,-0.167 0.59,-0.097C0.535,-0.034 0.459,-0.001 0.361,0.002C0.342,0.003 0.29,0.003 0.205,0.003C0.189,0.003 0.165,0.002 0.133,0.001C0.101,0 0.077,0 0.061,0C0.052,0 0.047,-0.004 0.047,-0.011C0.047,-0.047 0.048,-0.101 0.051,-0.173C0.054,-0.244 0.055,-0.298 0.055,-0.334C0.055,-0.371 0.054,-0.427 0.051,-0.502C0.048,-0.577 0.047,-0.633 0.047,-0.67C0.047,-0.677 0.052,-0.681 0.061,-0.682C0.084,-0.685 0.122,-0.686 0.175,-0.686C0.275,-0.686 0.34,-0.685 0.37,-0.682C0.447,-0.674 0.507,-0.654 0.551,-0.623C0.592,-0.594 0.624,-0.553 0.648,-0.5C0.671,-0.45 0.682,-0.399 0.682,-0.346ZM0.495,-0.346C0.495,-0.401 0.479,-0.446 0.446,-0.481C0.413,-0.517 0.369,-0.535 0.314,-0.535C0.264,-0.535 0.239,-0.528 0.239,-0.515C0.239,-0.496 0.238,-0.467 0.238,-0.428C0.237,-0.39 0.237,-0.361 0.237,-0.342C0.237,-0.323 0.237,-0.295 0.238,-0.257C0.238,-0.219 0.239,-0.19 0.239,-0.171C0.239,-0.157 0.265,-0.15 0.317,-0.15C0.373,-0.15 0.417,-0.169 0.45,-0.206C0.48,-0.242 0.495,-0.288 0.495,-0.346Z" style="fill:rgb(0,110,38);fill-rule:nonzero;"/>
        </g>
        <g transform="matrix(12,0,0,12,206.492,292.757)">
            <path d="M0.511,-0.24C0.511,-0.166 0.489,-0.106 0.443,-0.06C0.398,-0.013 0.338,0.01 0.264,0.01C0.193,0.01 0.134,-0.013 0.087,-0.059C0.041,-0.104 0.018,-0.163 0.018,-0.234C0.018,-0.31 0.04,-0.371 0.084,-0.418C0.129,-0.465 0.189,-0.489 0.264,-0.489C0.338,-0.489 0.397,-0.466 0.443,-0.42C0.488,-0.374 0.511,-0.314 0.511,-0.24ZM0.351,-0.24C0.351,-0.266 0.343,-0.289 0.327,-0.308C0.311,-0.328 0.291,-0.338 0.265,-0.338C0.239,-0.338 0.218,-0.328 0.202,-0.308C0.186,-0.289 0.178,-0.266 0.178,-0.24C0.178,-0.214 0.186,-0.191 0.202,-0.172C0.218,-0.152 0.239,-0.142 0.265,-0.142C0.291,-0.142 0.312,-0.152 0.328,-0.172C0.343,-0.191 0.351,-0.214 0.351,-0.24Z" style="fill:rgb(0,110,38);fill-rule:nonzero;"/>
        </g>
        <g transform="matrix(12,0,0,12,212.837,292.757)">
            <path d="M0.489,-0.265C0.489,-0.232 0.478,-0.214 0.457,-0.209C0.453,-0.208 0.42,-0.205 0.356,-0.198C0.318,-0.194 0.26,-0.189 0.184,-0.183C0.189,-0.162 0.202,-0.146 0.226,-0.135C0.244,-0.126 0.266,-0.121 0.29,-0.121C0.319,-0.121 0.348,-0.129 0.377,-0.145C0.39,-0.152 0.402,-0.16 0.415,-0.168C0.421,-0.165 0.433,-0.148 0.449,-0.118C0.465,-0.088 0.473,-0.069 0.473,-0.061C0.473,-0.059 0.471,-0.055 0.466,-0.05C0.426,-0.007 0.364,0.014 0.281,0.014C0.203,0.014 0.141,-0.008 0.093,-0.054C0.044,-0.1 0.02,-0.161 0.02,-0.238C0.02,-0.313 0.042,-0.374 0.085,-0.422C0.13,-0.471 0.19,-0.496 0.264,-0.496C0.327,-0.496 0.38,-0.473 0.423,-0.428C0.467,-0.382 0.489,-0.328 0.489,-0.265ZM0.318,-0.295C0.318,-0.315 0.311,-0.333 0.296,-0.348C0.282,-0.363 0.265,-0.371 0.245,-0.371C0.225,-0.371 0.208,-0.362 0.194,-0.345C0.182,-0.329 0.176,-0.311 0.176,-0.289C0.176,-0.28 0.18,-0.276 0.189,-0.276C0.214,-0.276 0.251,-0.28 0.302,-0.287C0.313,-0.289 0.318,-0.291 0.318,-0.295Z" style="fill:rgb(0,110,38);fill-rule:nonzero;"/>
        </g>
        <g transform="matrix(12,0,0,12,218.849,292.757)">
            <path d="M0.327,-0.395C0.327,-0.392 0.325,-0.387 0.32,-0.382C0.311,-0.384 0.302,-0.385 0.292,-0.385C0.273,-0.385 0.257,-0.381 0.244,-0.373C0.229,-0.363 0.221,-0.349 0.221,-0.331C0.221,-0.32 0.229,-0.305 0.246,-0.288C0.271,-0.261 0.286,-0.243 0.292,-0.234C0.309,-0.21 0.317,-0.183 0.317,-0.155C0.317,-0.138 0.314,-0.121 0.307,-0.102C0.3,-0.082 0.29,-0.067 0.279,-0.057C0.255,-0.036 0.227,-0.019 0.194,-0.004C0.16,0.011 0.127,0.018 0.098,0.018C0.092,0.018 0.077,0 0.054,-0.035C0.032,-0.07 0.021,-0.092 0.021,-0.1C0.021,-0.103 0.022,-0.104 0.026,-0.105C0.049,-0.109 0.072,-0.113 0.095,-0.118C0.123,-0.127 0.138,-0.142 0.138,-0.163C0.138,-0.177 0.129,-0.194 0.113,-0.212C0.083,-0.245 0.068,-0.263 0.066,-0.265C0.05,-0.288 0.042,-0.313 0.042,-0.339C0.042,-0.388 0.066,-0.429 0.116,-0.463C0.16,-0.494 0.207,-0.509 0.258,-0.509C0.263,-0.509 0.276,-0.491 0.296,-0.456C0.317,-0.421 0.327,-0.401 0.327,-0.395Z" style="fill:rgb(0,110,38);fill-rule:nonzero;"/>
        </g>
        <g transform="matrix(12,0,0,12,223.121,292.757)">
            <path d="M0.527,-0.014C0.527,-0.005 0.522,0 0.513,0.001C0.504,0.002 0.48,0.003 0.442,0.003C0.401,0.003 0.375,0.002 0.366,0C0.356,-0.002 0.351,-0.009 0.351,-0.02C0.351,-0.035 0.352,-0.058 0.353,-0.089C0.354,-0.12 0.354,-0.144 0.354,-0.159C0.354,-0.171 0.354,-0.189 0.353,-0.213C0.352,-0.237 0.352,-0.255 0.352,-0.267C0.352,-0.312 0.333,-0.334 0.294,-0.334C0.281,-0.334 0.266,-0.328 0.25,-0.317C0.231,-0.305 0.222,-0.293 0.222,-0.281L0.222,-0.017C0.222,-0.006 0.217,0 0.207,0.001C0.196,0.002 0.172,0.003 0.137,0.003C0.099,0.003 0.074,0.002 0.063,0C0.053,-0.002 0.048,-0.007 0.048,-0.016C0.048,-0.042 0.048,-0.08 0.048,-0.131C0.049,-0.182 0.049,-0.22 0.049,-0.246C0.049,-0.327 0.042,-0.391 0.03,-0.437C0.029,-0.44 0.029,-0.442 0.029,-0.444C0.029,-0.45 0.031,-0.453 0.036,-0.455C0.057,-0.457 0.084,-0.461 0.118,-0.466C0.17,-0.476 0.199,-0.481 0.206,-0.481C0.209,-0.481 0.212,-0.47 0.214,-0.448C0.216,-0.426 0.219,-0.415 0.222,-0.415C0.219,-0.415 0.236,-0.426 0.275,-0.449C0.313,-0.472 0.347,-0.483 0.376,-0.483C0.417,-0.483 0.452,-0.473 0.479,-0.454C0.51,-0.431 0.526,-0.4 0.526,-0.36L0.526,-0.204C0.526,-0.183 0.526,-0.151 0.526,-0.109C0.527,-0.067 0.527,-0.035 0.527,-0.014Z" style="fill:rgb(0,110,38);fill-rule:nonzero;"/>
        </g>
        <g transform="matrix(12,0,0,12,229.923,292.757)">
            <path d="M0.196,-0.597C0.196,-0.543 0.184,-0.484 0.16,-0.421C0.158,-0.415 0.154,-0.412 0.149,-0.411C0.141,-0.41 0.131,-0.409 0.117,-0.409C0.108,-0.409 0.098,-0.41 0.089,-0.411C0.075,-0.413 0.062,-0.443 0.051,-0.502C0.042,-0.549 0.038,-0.585 0.038,-0.612L0.038,-0.672C0.038,-0.679 0.04,-0.684 0.044,-0.685C0.049,-0.687 0.073,-0.688 0.114,-0.688C0.158,-0.688 0.182,-0.687 0.187,-0.685C0.193,-0.682 0.196,-0.653 0.196,-0.597Z" style="fill:rgb(0,110,38);fill-rule:nonzero;"/>
        </g>
        <g transform="matrix(12,0,0,12,232.707,292.757)">
            <path d="M0.368,-0.143C0.368,-0.133 0.367,-0.118 0.365,-0.099C0.362,-0.079 0.361,-0.064 0.361,-0.055C0.361,-0.046 0.36,-0.04 0.358,-0.037C0.356,-0.035 0.351,-0.031 0.342,-0.026C0.3,-0.003 0.253,0.009 0.202,0.009C0.108,0.009 0.061,-0.027 0.061,-0.099C0.061,-0.121 0.062,-0.153 0.063,-0.196C0.065,-0.239 0.066,-0.271 0.066,-0.293C0.066,-0.307 0.058,-0.314 0.041,-0.314L0.035,-0.314C0.032,-0.314 0.03,-0.314 0.028,-0.314C0.016,-0.314 0.01,-0.318 0.01,-0.327C0.01,-0.332 0.01,-0.34 0.011,-0.351C0.012,-0.362 0.012,-0.37 0.012,-0.375C0.012,-0.382 0.012,-0.392 0.011,-0.406C0.01,-0.42 0.01,-0.431 0.01,-0.438C0.01,-0.444 0.02,-0.448 0.041,-0.448C0.053,-0.449 0.059,-0.452 0.06,-0.458C0.062,-0.47 0.063,-0.49 0.062,-0.517C0.061,-0.559 0.06,-0.579 0.06,-0.577C0.06,-0.614 0.064,-0.633 0.071,-0.633C0.08,-0.633 0.092,-0.631 0.108,-0.627C0.127,-0.623 0.14,-0.621 0.147,-0.62C0.164,-0.618 0.189,-0.615 0.222,-0.611C0.23,-0.61 0.234,-0.607 0.234,-0.603C0.234,-0.59 0.233,-0.57 0.231,-0.543C0.229,-0.517 0.228,-0.497 0.228,-0.484C0.228,-0.468 0.233,-0.46 0.242,-0.46C0.254,-0.46 0.271,-0.46 0.294,-0.461C0.317,-0.462 0.334,-0.463 0.346,-0.463C0.353,-0.463 0.357,-0.46 0.357,-0.456C0.357,-0.448 0.356,-0.437 0.354,-0.422C0.353,-0.407 0.352,-0.396 0.352,-0.388L0.353,-0.32C0.353,-0.313 0.348,-0.31 0.339,-0.31C0.332,-0.31 0.321,-0.31 0.306,-0.31C0.291,-0.311 0.28,-0.311 0.273,-0.311L0.237,-0.311C0.232,-0.311 0.229,-0.304 0.229,-0.29L0.229,-0.255C0.23,-0.239 0.23,-0.228 0.23,-0.22C0.23,-0.193 0.233,-0.174 0.239,-0.164C0.248,-0.15 0.265,-0.143 0.291,-0.143C0.299,-0.143 0.311,-0.144 0.326,-0.148C0.341,-0.152 0.352,-0.154 0.358,-0.154C0.365,-0.154 0.368,-0.15 0.368,-0.143Z" style="fill:rgb(0,110,38);fill-rule:nonzero;"/>
        </g>
        <g transform="matrix(12,0,0,12,240.242,292.757)">
            <path d="M0.494,0.008C0.466,0.008 0.429,0.008 0.384,0.006C0.326,0.005 0.289,0.004 0.275,0.004L0.129,0.002C0.114,0.002 0.093,0.002 0.066,0C0.056,-0.002 0.052,-0.007 0.052,-0.015C0.052,-0.051 0.052,-0.104 0.053,-0.175C0.055,-0.245 0.055,-0.299 0.055,-0.334C0.055,-0.372 0.054,-0.428 0.052,-0.504C0.049,-0.579 0.048,-0.636 0.048,-0.673C0.048,-0.681 0.053,-0.684 0.063,-0.684C0.073,-0.684 0.087,-0.684 0.107,-0.683C0.126,-0.682 0.14,-0.681 0.15,-0.681C0.161,-0.681 0.177,-0.682 0.198,-0.683C0.219,-0.684 0.235,-0.685 0.246,-0.685C0.25,-0.685 0.253,-0.681 0.252,-0.675L0.252,-0.669C0.248,-0.608 0.244,-0.516 0.239,-0.393L0.238,-0.264C0.238,-0.222 0.238,-0.192 0.239,-0.173C0.239,-0.169 0.239,-0.165 0.24,-0.161C0.24,-0.157 0.243,-0.155 0.247,-0.154L0.26,-0.154C0.289,-0.154 0.333,-0.155 0.391,-0.158C0.45,-0.162 0.494,-0.163 0.523,-0.163C0.532,-0.163 0.536,-0.159 0.536,-0.152C0.536,-0.096 0.532,-0.048 0.524,-0.008C0.522,0.001 0.519,0.006 0.514,0.007C0.512,0.008 0.505,0.008 0.494,0.008Z" style="fill:rgb(0,110,38);fill-rule:nonzero;"/>
        </g>
        <g transform="matrix(12,0,0,12,246.804,292.757)">
            <path d="M0.511,-0.24C0.511,-0.166 0.489,-0.106 0.443,-0.06C0.398,-0.013 0.338,0.01 0.264,0.01C0.193,0.01 0.134,-0.013 0.087,-0.059C0.041,-0.104 0.018,-0.163 0.018,-0.234C0.018,-0.31 0.04,-0.371 0.084,-0.418C0.129,-0.465 0.189,-0.489 0.264,-0.489C0.338,-0.489 0.397,-0.466 0.443,-0.42C0.488,-0.374 0.511,-0.314 0.511,-0.24ZM0.351,-0.24C0.351,-0.266 0.343,-0.289 0.327,-0.308C0.311,-0.328 0.291,-0.338 0.265,-0.338C0.239,-0.338 0.218,-0.328 0.202,-0.308C0.186,-0.289 0.178,-0.266 0.178,-0.24C0.178,-0.214 0.186,-0.191 0.202,-0.172C0.218,-0.152 0.239,-0.142 0.265,-0.142C0.291,-0.142 0.312,-0.152 0.328,-0.172C0.343,-0.191 0.351,-0.214 0.351,-0.24Z" style="fill:rgb(0,110,38);fill-rule:nonzero;"/>
        </g>
        <g transform="matrix(12,0,0,12,253.15,292.757)">
            <path d="M0.511,-0.339C0.511,-0.283 0.509,-0.25 0.506,-0.24C0.498,-0.217 0.476,-0.178 0.438,-0.123C0.406,-0.075 0.378,-0.038 0.355,-0.011C0.347,-0.001 0.321,0.004 0.278,0.004C0.241,0.004 0.217,0.003 0.206,0C0.199,-0.002 0.194,-0.005 0.189,-0.01C0.169,-0.031 0.142,-0.068 0.105,-0.12C0.067,-0.176 0.044,-0.215 0.036,-0.236C0.028,-0.258 0.024,-0.292 0.024,-0.337C0.024,-0.35 0.024,-0.369 0.024,-0.394C0.025,-0.42 0.025,-0.439 0.025,-0.452C0.025,-0.461 0.031,-0.465 0.042,-0.465C0.059,-0.465 0.084,-0.464 0.117,-0.463C0.15,-0.462 0.175,-0.462 0.192,-0.462C0.199,-0.462 0.203,-0.457 0.203,-0.447C0.203,-0.438 0.202,-0.424 0.201,-0.406C0.2,-0.387 0.199,-0.373 0.199,-0.364C0.199,-0.33 0.2,-0.302 0.202,-0.281C0.203,-0.27 0.213,-0.249 0.23,-0.218C0.249,-0.186 0.263,-0.17 0.271,-0.17C0.279,-0.17 0.292,-0.186 0.31,-0.217C0.327,-0.247 0.337,-0.267 0.338,-0.278C0.34,-0.301 0.342,-0.329 0.342,-0.362C0.342,-0.371 0.341,-0.385 0.339,-0.405C0.337,-0.424 0.336,-0.438 0.336,-0.447C0.336,-0.457 0.339,-0.462 0.346,-0.462L0.416,-0.461C0.424,-0.461 0.436,-0.462 0.451,-0.463C0.467,-0.464 0.479,-0.465 0.487,-0.465C0.495,-0.465 0.5,-0.461 0.503,-0.452C0.508,-0.434 0.511,-0.396 0.511,-0.339Z" style="fill:rgb(0,110,38);fill-rule:nonzero;"/>
        </g>
        <g transform="matrix(12,0,0,12,259.583,292.757)">
            <path d="M0.489,-0.265C0.489,-0.232 0.478,-0.214 0.457,-0.209C0.453,-0.208 0.42,-0.205 0.356,-0.198C0.318,-0.194 0.26,-0.189 0.184,-0.183C0.189,-0.162 0.202,-0.146 0.226,-0.135C0.244,-0.126 0.266,-0.121 0.29,-0.121C0.319,-0.121 0.348,-0.129 0.377,-0.145C0.39,-0.152 0.402,-0.16 0.415,-0.168C0.421,-0.165 0.433,-0.148 0.449,-0.118C0.465,-0.088 0.473,-0.069 0.473,-0.061C0.473,-0.059 0.471,-0.055 0.466,-0.05C0.426,-0.007 0.364,0.014 0.281,0.014C0.203,0.014 0.141,-0.008 0.093,-0.054C0.044,-0.1 0.02,-0.161 0.02,-0.238C0.02,-0.313 0.042,-0.374 0.085,-0.422C0.13,-0.471 0.19,-0.496 0.264,-0.496C0.327,-0.496 0.38,-0.473 0.423,-0.428C0.467,-0.382 0.489,-0.328 0.489,-0.265ZM0.318,-0.295C0.318,-0.315 0.311,-0.333 0.296,-0.348C0.282,-0.363 0.265,-0.371 0.245,-0.371C0.225,-0.371 0.208,-0.362 0.194,-0.345C0.182,-0.329 0.176,-0.311 0.176,-0.289C0.176,-0.28 0.18,-0.276 0.189,-0.276C0.214,-0.276 0.251,-0.28 0.302,-0.287C0.313,-0.289 0.318,-0.291 0.318,-0.295Z" style="fill:rgb(0,110,38);fill-rule:nonzero;"/>
        </g>
    </g>
    <g transform="matrix(3.27176,0,0,3.27176,-248.331,-1131.6)">
        <g transform="matrix(12,0,0,12,133.926,453.621)">
            <path d="M0.501,-0.19C0.501,-0.127 0.478,-0.078 0.433,-0.043C0.387,-0.008 0.325,0.01 0.247,0.01C0.162,0.01 0.097,-0.001 0.052,-0.023L0.052,-0.103C0.081,-0.091 0.113,-0.081 0.147,-0.074C0.182,-0.067 0.216,-0.063 0.25,-0.063C0.305,-0.063 0.347,-0.073 0.375,-0.094C0.403,-0.115 0.417,-0.145 0.417,-0.182C0.417,-0.207 0.412,-0.227 0.402,-0.243C0.392,-0.259 0.376,-0.273 0.352,-0.287C0.329,-0.3 0.294,-0.315 0.246,-0.332C0.18,-0.356 0.132,-0.384 0.104,-0.417C0.075,-0.449 0.061,-0.492 0.061,-0.544C0.061,-0.599 0.082,-0.643 0.123,-0.675C0.164,-0.708 0.219,-0.724 0.287,-0.724C0.358,-0.724 0.423,-0.711 0.483,-0.685L0.457,-0.613C0.398,-0.638 0.341,-0.65 0.285,-0.65C0.241,-0.65 0.207,-0.64 0.182,-0.622C0.157,-0.603 0.145,-0.576 0.145,-0.543C0.145,-0.518 0.15,-0.498 0.159,-0.482C0.168,-0.466 0.183,-0.452 0.205,-0.439C0.226,-0.426 0.26,-0.411 0.304,-0.395C0.379,-0.368 0.431,-0.34 0.459,-0.309C0.487,-0.278 0.501,-0.239 0.501,-0.19Z" style="fill:rgb(76,7,2);fill-rule:nonzero;"/>
        </g>
        <g transform="matrix(12,0,0,12,140.512,453.621)">
            <path d="M0.335,0.01C0.3,0.01 0.268,0.003 0.24,-0.01C0.211,-0.022 0.187,-0.042 0.167,-0.069L0.161,-0.069C0.165,-0.038 0.167,-0.008 0.167,0.02L0.167,0.24L0.086,0.24L0.086,-0.535L0.152,-0.535L0.163,-0.462L0.167,-0.462C0.188,-0.491 0.212,-0.512 0.24,-0.525C0.267,-0.538 0.299,-0.545 0.335,-0.545C0.406,-0.545 0.461,-0.521 0.499,-0.472C0.538,-0.424 0.557,-0.356 0.557,-0.268C0.557,-0.18 0.538,-0.112 0.498,-0.063C0.459,-0.015 0.405,0.01 0.335,0.01ZM0.323,-0.476C0.269,-0.476 0.229,-0.461 0.205,-0.431C0.18,-0.4 0.168,-0.352 0.167,-0.286L0.167,-0.268C0.167,-0.193 0.18,-0.139 0.205,-0.107C0.23,-0.074 0.27,-0.058 0.325,-0.058C0.371,-0.058 0.408,-0.077 0.434,-0.114C0.46,-0.152 0.473,-0.203 0.473,-0.269C0.473,-0.336 0.46,-0.387 0.434,-0.423C0.408,-0.458 0.371,-0.476 0.323,-0.476Z" style="fill:rgb(76,7,2);fill-rule:nonzero;"/>
        </g>
        <g transform="matrix(12,0,0,12,147.866,453.621)">
            <path d="M0.548,-0.268C0.548,-0.181 0.526,-0.113 0.482,-0.064C0.438,-0.015 0.377,0.01 0.3,0.01C0.252,0.01 0.209,-0.001 0.172,-0.024C0.135,-0.046 0.107,-0.079 0.086,-0.121C0.066,-0.163 0.056,-0.212 0.056,-0.268C0.056,-0.355 0.078,-0.423 0.122,-0.472C0.165,-0.521 0.226,-0.545 0.303,-0.545C0.378,-0.545 0.438,-0.52 0.482,-0.47C0.526,-0.42 0.548,-0.353 0.548,-0.268ZM0.14,-0.268C0.14,-0.2 0.154,-0.148 0.181,-0.112C0.208,-0.076 0.249,-0.058 0.302,-0.058C0.355,-0.058 0.395,-0.076 0.423,-0.112C0.45,-0.147 0.464,-0.199 0.464,-0.268C0.464,-0.336 0.45,-0.388 0.423,-0.423C0.395,-0.458 0.354,-0.476 0.301,-0.476C0.248,-0.476 0.208,-0.459 0.181,-0.424C0.154,-0.389 0.14,-0.337 0.14,-0.268Z" style="fill:rgb(76,7,2);fill-rule:nonzero;"/>
        </g>
        <g transform="matrix(12,0,0,12,155.114,453.621)">
            <path d="M0.452,0L0.452,-0.346C0.452,-0.39 0.442,-0.422 0.422,-0.444C0.403,-0.465 0.371,-0.476 0.329,-0.476C0.273,-0.476 0.232,-0.461 0.206,-0.431C0.18,-0.4 0.167,-0.35 0.167,-0.281L0.167,0L0.086,0L0.086,-0.535L0.152,-0.535L0.165,-0.462L0.169,-0.462C0.186,-0.488 0.209,-0.509 0.239,-0.523C0.269,-0.538 0.302,-0.545 0.339,-0.545C0.403,-0.545 0.452,-0.529 0.484,-0.498C0.517,-0.467 0.533,-0.417 0.533,-0.349L0.533,0L0.452,0Z" style="fill:rgb(76,7,2);fill-rule:nonzero;"/>
        </g>
        <g transform="matrix(12,0,0,12,162.479,453.621)">
            <path d="M0.431,-0.146C0.431,-0.096 0.413,-0.058 0.375,-0.031C0.338,-0.004 0.286,0.01 0.219,0.01C0.148,0.01 0.093,-0.001 0.053,-0.024L0.053,-0.099C0.079,-0.086 0.107,-0.076 0.136,-0.068C0.165,-0.061 0.194,-0.057 0.221,-0.057C0.264,-0.057 0.296,-0.064 0.319,-0.077C0.342,-0.091 0.353,-0.111 0.353,-0.139C0.353,-0.16 0.344,-0.178 0.326,-0.193C0.308,-0.207 0.273,-0.225 0.22,-0.245C0.17,-0.264 0.135,-0.28 0.114,-0.294C0.093,-0.308 0.077,-0.323 0.067,-0.341C0.057,-0.358 0.052,-0.379 0.052,-0.404C0.052,-0.447 0.069,-0.482 0.105,-0.507C0.14,-0.532 0.189,-0.545 0.251,-0.545C0.309,-0.545 0.365,-0.533 0.42,-0.51L0.391,-0.444C0.337,-0.466 0.289,-0.477 0.245,-0.477C0.207,-0.477 0.178,-0.471 0.158,-0.459C0.139,-0.447 0.129,-0.43 0.129,-0.409C0.129,-0.395 0.133,-0.383 0.14,-0.373C0.147,-0.362 0.159,-0.353 0.175,-0.344C0.192,-0.335 0.223,-0.321 0.269,-0.304C0.333,-0.281 0.375,-0.258 0.398,-0.234C0.42,-0.211 0.431,-0.181 0.431,-0.146Z" style="fill:rgb(76,7,2);fill-rule:nonzero;"/>
        </g>
        <g transform="matrix(12,0,0,12,168.204,453.621)">
            <path d="M0.548,-0.268C0.548,-0.181 0.526,-0.113 0.482,-0.064C0.438,-0.015 0.377,0.01 0.3,0.01C0.252,0.01 0.209,-0.001 0.172,-0.024C0.135,-0.046 0.107,-0.079 0.086,-0.121C0.066,-0.163 0.056,-0.212 0.056,-0.268C0.056,-0.355 0.078,-0.423 0.122,-0.472C0.165,-0.521 0.226,-0.545 0.303,-0.545C0.378,-0.545 0.438,-0.52 0.482,-0.47C0.526,-0.42 0.548,-0.353 0.548,-0.268ZM0.14,-0.268C0.14,-0.2 0.154,-0.148 0.181,-0.112C0.208,-0.076 0.249,-0.058 0.302,-0.058C0.355,-0.058 0.395,-0.076 0.423,-0.112C0.45,-0.147 0.464,-0.199 0.464,-0.268C0.464,-0.336 0.45,-0.388 0.423,-0.423C0.395,-0.458 0.354,-0.476 0.301,-0.476C0.248,-0.476 0.208,-0.459 0.181,-0.424C0.154,-0.389 0.14,-0.337 0.14,-0.268Z" style="fill:rgb(76,7,2);fill-rule:nonzero;"/>
        </g>
        <g transform="matrix(12,0,0,12,175.452,453.621)">
            <path d="M0.33,-0.545C0.354,-0.545 0.375,-0.543 0.394,-0.539L0.383,-0.464C0.361,-0.469 0.341,-0.471 0.324,-0.471C0.281,-0.471 0.244,-0.454 0.213,-0.418C0.182,-0.383 0.167,-0.34 0.167,-0.287L0.167,0L0.086,0L0.086,-0.535L0.153,-0.535L0.162,-0.436L0.166,-0.436C0.186,-0.471 0.21,-0.498 0.238,-0.517C0.266,-0.535 0.297,-0.545 0.33,-0.545Z" style="fill:rgb(76,7,2);fill-rule:nonzero;"/>
        </g>
        <g transform="matrix(12,0,0,12,180.11,453.621)">
            <path d="M0.312,0.01C0.233,0.01 0.17,-0.014 0.125,-0.063C0.079,-0.111 0.056,-0.178 0.056,-0.263C0.056,-0.349 0.077,-0.418 0.12,-0.469C0.162,-0.52 0.219,-0.545 0.291,-0.545C0.358,-0.545 0.411,-0.523 0.45,-0.479C0.489,-0.435 0.509,-0.376 0.509,-0.304L0.509,-0.253L0.14,-0.253C0.142,-0.19 0.158,-0.142 0.188,-0.11C0.218,-0.077 0.26,-0.061 0.315,-0.061C0.373,-0.061 0.43,-0.073 0.486,-0.097L0.486,-0.025C0.457,-0.013 0.43,-0.004 0.405,0.002C0.379,0.007 0.348,0.01 0.312,0.01ZM0.29,-0.477C0.247,-0.477 0.213,-0.463 0.187,-0.435C0.162,-0.407 0.147,-0.368 0.142,-0.319L0.422,-0.319C0.422,-0.37 0.41,-0.409 0.388,-0.436C0.365,-0.463 0.332,-0.477 0.29,-0.477Z" style="fill:rgb(76,7,2);fill-rule:nonzero;"/>
        </g>
        <g transform="matrix(12,0,0,12,186.842,453.621)">
            <path d="M0.45,-0.072L0.446,-0.072C0.408,-0.017 0.352,0.01 0.278,0.01C0.208,0.01 0.153,-0.014 0.115,-0.062C0.076,-0.11 0.056,-0.178 0.056,-0.266C0.056,-0.354 0.076,-0.423 0.115,-0.472C0.154,-0.521 0.208,-0.545 0.278,-0.545C0.35,-0.545 0.406,-0.519 0.445,-0.466L0.451,-0.466L0.448,-0.504L0.446,-0.542L0.446,-0.76L0.527,-0.76L0.527,0L0.461,0L0.45,-0.072ZM0.288,-0.058C0.343,-0.058 0.384,-0.073 0.408,-0.103C0.433,-0.133 0.446,-0.182 0.446,-0.249L0.446,-0.266C0.446,-0.342 0.433,-0.396 0.408,-0.428C0.383,-0.461 0.342,-0.477 0.287,-0.477C0.24,-0.477 0.203,-0.459 0.178,-0.422C0.153,-0.385 0.14,-0.333 0.14,-0.265C0.14,-0.197 0.153,-0.145 0.178,-0.11C0.203,-0.076 0.24,-0.058 0.288,-0.058Z" style="fill:rgb(76,7,2);fill-rule:nonzero;"/>
        </g>
        <g transform="matrix(12,0,0,12,197.313,453.621)">
            <path d="M0.335,-0.544C0.405,-0.544 0.46,-0.52 0.499,-0.472C0.538,-0.424 0.557,-0.356 0.557,-0.268C0.557,-0.18 0.538,-0.112 0.498,-0.063C0.459,-0.015 0.405,0.01 0.335,0.01C0.3,0.01 0.268,0.003 0.24,-0.01C0.211,-0.022 0.187,-0.042 0.167,-0.069L0.161,-0.069L0.144,0L0.086,0L0.086,-0.76L0.167,-0.76L0.167,-0.575C0.167,-0.534 0.166,-0.497 0.163,-0.464L0.167,-0.464C0.205,-0.517 0.261,-0.544 0.335,-0.544ZM0.323,-0.476C0.268,-0.476 0.228,-0.46 0.204,-0.428C0.179,-0.397 0.167,-0.343 0.167,-0.268C0.167,-0.193 0.18,-0.139 0.205,-0.107C0.23,-0.074 0.27,-0.058 0.325,-0.058C0.375,-0.058 0.412,-0.076 0.437,-0.113C0.461,-0.149 0.473,-0.201 0.473,-0.269C0.473,-0.339 0.461,-0.391 0.437,-0.425C0.412,-0.459 0.374,-0.476 0.323,-0.476Z" style="fill:rgb(76,7,2);fill-rule:nonzero;"/>
        </g>
        <g transform="matrix(12,0,0,12,204.426,453.621)">
            <path d="M0.001,-0.535L0.088,-0.535L0.205,-0.23C0.231,-0.16 0.247,-0.11 0.253,-0.079L0.257,-0.079C0.261,-0.096 0.27,-0.124 0.283,-0.164C0.297,-0.205 0.341,-0.328 0.416,-0.535L0.503,-0.535L0.273,0.074C0.25,0.134 0.224,0.177 0.193,0.202C0.163,0.228 0.125,0.24 0.081,0.24C0.056,0.24 0.032,0.237 0.008,0.232L0.008,0.167C0.026,0.171 0.046,0.173 0.068,0.173C0.124,0.173 0.163,0.142 0.187,0.079L0.217,0.003L0.001,-0.535Z" style="fill:rgb(76,7,2);fill-rule:nonzero;"/>
        </g>
        <g transform="matrix(12,0,0,12,213.59,453.621)">
            <path d="M0.404,-0.65C0.325,-0.65 0.263,-0.624 0.218,-0.572C0.173,-0.519 0.15,-0.448 0.15,-0.357C0.15,-0.264 0.172,-0.191 0.216,-0.14C0.259,-0.089 0.322,-0.064 0.403,-0.064C0.453,-0.064 0.509,-0.073 0.573,-0.091L0.573,-0.018C0.524,0 0.463,0.01 0.39,0.01C0.285,0.01 0.204,-0.022 0.147,-0.086C0.09,-0.15 0.061,-0.24 0.061,-0.358C0.061,-0.431 0.075,-0.496 0.102,-0.551C0.13,-0.607 0.17,-0.649 0.221,-0.679C0.273,-0.709 0.334,-0.724 0.405,-0.724C0.48,-0.724 0.545,-0.71 0.601,-0.683L0.566,-0.612C0.512,-0.637 0.458,-0.65 0.404,-0.65Z" style="fill:rgb(76,7,2);fill-rule:nonzero;"/>
        </g>
        <g transform="matrix(12,0,0,12,221.161,453.621)">
            <path d="M0.452,0L0.452,-0.346C0.452,-0.39 0.442,-0.422 0.422,-0.444C0.403,-0.465 0.371,-0.476 0.329,-0.476C0.273,-0.476 0.232,-0.461 0.206,-0.43C0.18,-0.4 0.167,-0.349 0.167,-0.28L0.167,0L0.086,0L0.086,-0.76L0.167,-0.76L0.167,-0.53C0.167,-0.502 0.166,-0.479 0.163,-0.461L0.168,-0.461C0.184,-0.487 0.207,-0.507 0.236,-0.522C0.266,-0.537 0.299,-0.544 0.337,-0.544C0.402,-0.544 0.451,-0.528 0.484,-0.497C0.517,-0.466 0.533,-0.417 0.533,-0.349L0.533,0L0.452,0Z" style="fill:rgb(76,7,2);fill-rule:nonzero;"/>
        </g>
        <g transform="matrix(12,0,0,12,228.526,453.621)">
            <path d="M0.167,0L0.086,0L0.086,-0.535L0.167,-0.535L0.167,0ZM0.079,-0.68C0.079,-0.699 0.084,-0.712 0.093,-0.721C0.102,-0.73 0.113,-0.734 0.127,-0.734C0.14,-0.734 0.151,-0.729 0.161,-0.721C0.17,-0.712 0.175,-0.698 0.175,-0.68C0.175,-0.662 0.17,-0.648 0.161,-0.639C0.151,-0.63 0.14,-0.626 0.127,-0.626C0.113,-0.626 0.102,-0.63 0.093,-0.639C0.084,-0.648 0.079,-0.662 0.079,-0.68Z" style="fill:rgb(76,7,2);fill-rule:nonzero;"/>
        </g>
        <g transform="matrix(12,0,0,12,231.561,453.621)">
            <rect x="0.086" y="-0.76" width="0.081" height="0.76" style="fill:rgb(76,7,2);fill-rule:nonzero;"/>
        </g>
        <g transform="matrix(12,0,0,12,234.596,453.621)">
            <rect x="0.086" y="-0.76" width="0.081" height="0.76" style="fill:rgb(76,7,2);fill-rule:nonzero;"/>
        </g>
        <g transform="matrix(12,0,0,12,237.631,453.621)">
            <path d="M0.167,0L0.086,0L0.086,-0.535L0.167,-0.535L0.167,0ZM0.079,-0.68C0.079,-0.699 0.084,-0.712 0.093,-0.721C0.102,-0.73 0.113,-0.734 0.127,-0.734C0.14,-0.734 0.151,-0.729 0.161,-0.721C0.17,-0.712 0.175,-0.698 0.175,-0.68C0.175,-0.662 0.17,-0.648 0.161,-0.639C0.151,-0.63 0.14,-0.626 0.127,-0.626C0.113,-0.626 0.102,-0.63 0.093,-0.639C0.084,-0.648 0.079,-0.662 0.079,-0.68Z" style="fill:rgb(76,7,2);fill-rule:nonzero;"/>
        </g>
        <g transform="matrix(12,0,0,12,240.667,453.621)">
            <path d="M0.156,-0.714L0.136,-0.456L0.085,-0.456L0.065,-0.714L0.156,-0.714Z" style="fill:rgb(76,7,2);fill-rule:nonzero;"/>
        </g>
        <g transform="matrix(12,0,0,12,242.963,453.621)">
            <path d="M0.431,-0.146C0.431,-0.096 0.413,-0.058 0.375,-0.031C0.338,-0.004 0.286,0.01 0.219,0.01C0.148,0.01 0.093,-0.001 0.053,-0.024L0.053,-0.099C0.079,-0.086 0.107,-0.076 0.136,-0.068C0.165,-0.061 0.194,-0.057 0.221,-0.057C0.264,-0.057 0.296,-0.064 0.319,-0.077C0.342,-0.091 0.353,-0.111 0.353,-0.139C0.353,-0.16 0.344,-0.178 0.326,-0.193C0.308,-0.207 0.273,-0.225 0.22,-0.245C0.17,-0.264 0.135,-0.28 0.114,-0.294C0.093,-0.308 0.077,-0.323 0.067,-0.341C0.057,-0.358 0.052,-0.379 0.052,-0.404C0.052,-0.447 0.069,-0.482 0.105,-0.507C0.14,-0.532 0.189,-0.545 0.251,-0.545C0.309,-0.545 0.365,-0.533 0.42,-0.51L0.391,-0.444C0.337,-0.466 0.289,-0.477 0.245,-0.477C0.207,-0.477 0.178,-0.471 0.158,-0.459C0.139,-0.447 0.129,-0.43 0.129,-0.409C0.129,-0.395 0.133,-0.383 0.14,-0.373C0.147,-0.362 0.159,-0.353 0.175,-0.344C0.192,-0.335 0.223,-0.321 0.269,-0.304C0.333,-0.281 0.375,-0.258 0.398,-0.234C0.42,-0.211 0.431,-0.181 0.431,-0.146Z" style="fill:rgb(76,7,2);fill-rule:nonzero;"/>
        </g>
        <g transform="matrix(12,0,0,12,248.688,453.621)">
            <path d="M0.18,-0.362L0.12,-0.362L0.12,-0.662L0.018,-0.662L0.018,-0.714L0.283,-0.714L0.283,-0.662L0.18,-0.662L0.18,-0.362ZM0.473,-0.362L0.375,-0.635L0.371,-0.635L0.374,-0.572L0.374,-0.362L0.316,-0.362L0.316,-0.714L0.407,-0.714L0.503,-0.441L0.602,-0.714L0.69,-0.714L0.69,-0.362L0.628,-0.362L0.628,-0.567L0.631,-0.634L0.627,-0.634L0.524,-0.362L0.473,-0.362Z" style="fill:rgb(76,7,2);fill-rule:nonzero;"/>
        </g>
        <g transform="matrix(12,0,0,12,257.999,453.621)">
            <path d="M0.321,-0.76L0.3,-0.567L0.494,-0.621L0.507,-0.532L0.321,-0.517L0.442,-0.358L0.358,-0.312L0.272,-0.489L0.194,-0.312L0.108,-0.358L0.226,-0.517L0.042,-0.532L0.056,-0.621L0.247,-0.567L0.226,-0.76L0.321,-0.76Z" style="fill:rgb(76,7,2);fill-rule:nonzero;"/>
        </g>
    </g>
    <g transform="matrix(1.41619,0,0,1.41619,72.5893,-261.281)">
        <g transform="matrix(12,0,0,12,133.926,453.621)">
            <path d="M0.321,-0.76L0.3,-0.567L0.494,-0.621L0.507,-0.532L0.321,-0.517L0.442,-0.358L0.358,-0.312L0.272,-0.489L0.194,-0.312L0.108,-0.358L0.226,-0.517L0.042,-0.532L0.056,-0.621L0.247,-0.567L0.226,-0.76L0.321,-0.76Z" style="fill:rgb(76,7,2);fill-rule:nonzero;"/>
        </g>
        <g transform="matrix(12,0,0,12,143.665,453.621)">
            <path d="M0.656,0L0.561,0L0.171,-0.599L0.167,-0.599C0.172,-0.529 0.175,-0.464 0.175,-0.406L0.175,0L0.098,0L0.098,-0.714L0.192,-0.714L0.581,-0.117L0.585,-0.117C0.584,-0.126 0.583,-0.154 0.581,-0.202C0.578,-0.25 0.577,-0.284 0.578,-0.304L0.578,-0.714L0.656,-0.714L0.656,0Z" style="fill:rgb(76,7,2);fill-rule:nonzero;"/>
        </g>
        <g transform="matrix(12,0,0,12,152.711,453.621)">
            <path d="M0.548,-0.268C0.548,-0.181 0.526,-0.113 0.482,-0.064C0.438,-0.015 0.377,0.01 0.3,0.01C0.252,0.01 0.209,-0.001 0.172,-0.024C0.135,-0.046 0.107,-0.079 0.086,-0.121C0.066,-0.163 0.056,-0.212 0.056,-0.268C0.056,-0.355 0.078,-0.423 0.122,-0.472C0.165,-0.521 0.226,-0.545 0.303,-0.545C0.378,-0.545 0.438,-0.52 0.482,-0.47C0.526,-0.42 0.548,-0.353 0.548,-0.268ZM0.14,-0.268C0.14,-0.2 0.154,-0.148 0.181,-0.112C0.208,-0.076 0.249,-0.058 0.302,-0.058C0.355,-0.058 0.395,-0.076 0.423,-0.112C0.45,-0.147 0.464,-0.199 0.464,-0.268C0.464,-0.336 0.45,-0.388 0.423,-0.423C0.395,-0.458 0.354,-0.476 0.301,-0.476C0.248,-0.476 0.208,-0.459 0.181,-0.424C0.154,-0.389 0.14,-0.337 0.14,-0.268Z" style="fill:rgb(76,7,2);fill-rule:nonzero;"/>
        </g>
        <g transform="matrix(12,0,0,12,159.96,453.621)">
            <path d="M0.259,-0.057C0.273,-0.057 0.287,-0.058 0.3,-0.06C0.314,-0.062 0.324,-0.065 0.332,-0.067L0.332,-0.005C0.323,-0.001 0.31,0.003 0.293,0.006C0.276,0.008 0.261,0.01 0.247,0.01C0.144,0.01 0.092,-0.045 0.092,-0.154L0.092,-0.472L0.015,-0.472L0.015,-0.511L0.092,-0.545L0.126,-0.659L0.173,-0.659L0.173,-0.535L0.328,-0.535L0.328,-0.472L0.173,-0.472L0.173,-0.157C0.173,-0.125 0.181,-0.1 0.196,-0.083C0.211,-0.066 0.232,-0.057 0.259,-0.057Z" style="fill:rgb(76,7,2);fill-rule:nonzero;"/>
        </g>
        <g transform="matrix(12,0,0,12,167.313,453.621)">
            <path d="M0.415,0L0.399,-0.076L0.395,-0.076C0.368,-0.043 0.342,-0.02 0.315,-0.008C0.289,0.004 0.256,0.01 0.216,0.01C0.163,0.01 0.121,-0.004 0.091,-0.031C0.061,-0.059 0.046,-0.097 0.046,-0.148C0.046,-0.256 0.132,-0.313 0.305,-0.318L0.396,-0.321L0.396,-0.354C0.396,-0.396 0.387,-0.427 0.369,-0.447C0.351,-0.467 0.322,-0.477 0.282,-0.477C0.238,-0.477 0.187,-0.463 0.131,-0.436L0.106,-0.498C0.132,-0.512 0.161,-0.524 0.193,-0.532C0.224,-0.54 0.256,-0.544 0.287,-0.544C0.351,-0.544 0.398,-0.53 0.429,-0.501C0.46,-0.473 0.475,-0.428 0.475,-0.365L0.475,0L0.415,0ZM0.232,-0.057C0.282,-0.057 0.322,-0.071 0.351,-0.099C0.38,-0.126 0.394,-0.165 0.394,-0.215L0.394,-0.263L0.313,-0.26C0.249,-0.257 0.202,-0.247 0.174,-0.23C0.145,-0.212 0.131,-0.184 0.131,-0.147C0.131,-0.118 0.14,-0.095 0.157,-0.08C0.175,-0.065 0.2,-0.057 0.232,-0.057Z" style="fill:rgb(76,7,2);fill-rule:nonzero;"/>
        </g>
        <g transform="matrix(12,0,0,12,173.987,453.621)">
            <path d="M0.3,0.01C0.222,0.01 0.162,-0.014 0.12,-0.062C0.077,-0.109 0.056,-0.177 0.056,-0.264C0.056,-0.354 0.078,-0.423 0.121,-0.472C0.164,-0.521 0.225,-0.545 0.305,-0.545C0.331,-0.545 0.357,-0.542 0.382,-0.537C0.408,-0.531 0.428,-0.525 0.443,-0.517L0.418,-0.448C0.4,-0.455 0.381,-0.461 0.359,-0.466C0.338,-0.471 0.319,-0.473 0.303,-0.473C0.194,-0.473 0.14,-0.404 0.14,-0.265C0.14,-0.199 0.153,-0.149 0.18,-0.114C0.206,-0.079 0.246,-0.061 0.298,-0.061C0.342,-0.061 0.388,-0.071 0.435,-0.09L0.435,-0.018C0.399,0 0.354,0.01 0.3,0.01Z" style="fill:rgb(76,7,2);fill-rule:nonzero;"/>
        </g>
        <g transform="matrix(12,0,0,12,179.7,453.621)">
            <path d="M0.259,-0.057C0.273,-0.057 0.287,-0.058 0.3,-0.06C0.314,-0.062 0.324,-0.065 0.332,-0.067L0.332,-0.005C0.323,-0.001 0.31,0.003 0.293,0.006C0.276,0.008 0.261,0.01 0.247,0.01C0.144,0.01 0.092,-0.045 0.092,-0.154L0.092,-0.472L0.015,-0.472L0.015,-0.511L0.092,-0.545L0.126,-0.659L0.173,-0.659L0.173,-0.535L0.328,-0.535L0.328,-0.472L0.173,-0.472L0.173,-0.157C0.173,-0.125 0.181,-0.1 0.196,-0.083C0.211,-0.066 0.232,-0.057 0.259,-0.057Z" style="fill:rgb(76,7,2);fill-rule:nonzero;"/>
        </g>
        <g transform="matrix(12,0,0,12,183.936,453.621)">
            <path d="M0.162,-0.535L0.162,-0.188C0.162,-0.144 0.172,-0.112 0.192,-0.09C0.212,-0.069 0.243,-0.058 0.285,-0.058C0.341,-0.058 0.382,-0.073 0.408,-0.104C0.434,-0.135 0.447,-0.185 0.447,-0.254L0.447,-0.535L0.528,-0.535L0.528,0L0.461,0L0.449,-0.072L0.445,-0.072C0.428,-0.045 0.405,-0.025 0.376,-0.011C0.346,0.003 0.313,0.01 0.275,0.01C0.21,0.01 0.161,-0.006 0.129,-0.037C0.096,-0.068 0.08,-0.117 0.08,-0.185L0.08,-0.535L0.162,-0.535Z" style="fill:rgb(76,7,2);fill-rule:nonzero;"/>
        </g>
        <g transform="matrix(12,0,0,12,191.301,453.621)">
            <path d="M0.415,0L0.399,-0.076L0.395,-0.076C0.368,-0.043 0.342,-0.02 0.315,-0.008C0.289,0.004 0.256,0.01 0.216,0.01C0.163,0.01 0.121,-0.004 0.091,-0.031C0.061,-0.059 0.046,-0.097 0.046,-0.148C0.046,-0.256 0.132,-0.313 0.305,-0.318L0.396,-0.321L0.396,-0.354C0.396,-0.396 0.387,-0.427 0.369,-0.447C0.351,-0.467 0.322,-0.477 0.282,-0.477C0.238,-0.477 0.187,-0.463 0.131,-0.436L0.106,-0.498C0.132,-0.512 0.161,-0.524 0.193,-0.532C0.224,-0.54 0.256,-0.544 0.287,-0.544C0.351,-0.544 0.398,-0.53 0.429,-0.501C0.46,-0.473 0.475,-0.428 0.475,-0.365L0.475,0L0.415,0ZM0.232,-0.057C0.282,-0.057 0.322,-0.071 0.351,-0.099C0.38,-0.126 0.394,-0.165 0.394,-0.215L0.394,-0.263L0.313,-0.26C0.249,-0.257 0.202,-0.247 0.174,-0.23C0.145,-0.212 0.131,-0.184 0.131,-0.147C0.131,-0.118 0.14,-0.095 0.157,-0.08C0.175,-0.065 0.2,-0.057 0.232,-0.057Z" style="fill:rgb(76,7,2);fill-rule:nonzero;"/>
        </g>
        <g transform="matrix(12,0,0,12,197.975,453.621)">
            <rect x="0.086" y="-0.76" width="0.081" height="0.76" style="fill:rgb(76,7,2);fill-rule:nonzero;"/>
        </g>
        <g transform="matrix(12,0,0,12,201.01,453.621)">
            <rect x="0.086" y="-0.76" width="0.081" height="0.76" style="fill:rgb(76,7,2);fill-rule:nonzero;"/>
        </g>
        <g transform="matrix(12,0,0,12,204.045,453.621)">
            <path d="M0.001,-0.535L0.088,-0.535L0.205,-0.23C0.231,-0.16 0.247,-0.11 0.253,-0.079L0.257,-0.079C0.261,-0.096 0.27,-0.124 0.283,-0.164C0.297,-0.205 0.341,-0.328 0.416,-0.535L0.503,-0.535L0.273,0.074C0.25,0.134 0.224,0.177 0.193,0.202C0.163,0.228 0.125,0.24 0.081,0.24C0.056,0.24 0.032,0.237 0.008,0.232L0.008,0.167C0.026,0.171 0.046,0.173 0.068,0.173C0.124,0.173 0.163,0.142 0.187,0.079L0.217,0.003L0.001,-0.535Z" style="fill:rgb(76,7,2);fill-rule:nonzero;"/>
        </g>
        <g transform="matrix(12,0,0,12,213.21,453.621)">
            <path d="M0.431,-0.146C0.431,-0.096 0.413,-0.058 0.375,-0.031C0.338,-0.004 0.286,0.01 0.219,0.01C0.148,0.01 0.093,-0.001 0.053,-0.024L0.053,-0.099C0.079,-0.086 0.107,-0.076 0.136,-0.068C0.165,-0.061 0.194,-0.057 0.221,-0.057C0.264,-0.057 0.296,-0.064 0.319,-0.077C0.342,-0.091 0.353,-0.111 0.353,-0.139C0.353,-0.16 0.344,-0.178 0.326,-0.193C0.308,-0.207 0.273,-0.225 0.22,-0.245C0.17,-0.264 0.135,-0.28 0.114,-0.294C0.093,-0.308 0.077,-0.323 0.067,-0.341C0.057,-0.358 0.052,-0.379 0.052,-0.404C0.052,-0.447 0.069,-0.482 0.105,-0.507C0.14,-0.532 0.189,-0.545 0.251,-0.545C0.309,-0.545 0.365,-0.533 0.42,-0.51L0.391,-0.444C0.337,-0.466 0.289,-0.477 0.245,-0.477C0.207,-0.477 0.178,-0.471 0.158,-0.459C0.139,-0.447 0.129,-0.43 0.129,-0.409C0.129,-0.395 0.133,-0.383 0.14,-0.373C0.147,-0.362 0.159,-0.353 0.175,-0.344C0.192,-0.335 0.223,-0.321 0.269,-0.304C0.333,-0.281 0.375,-0.258 0.398,-0.234C0.42,-0.211 0.431,-0.181 0.431,-0.146Z" style="fill:rgb(76,7,2);fill-rule:nonzero;"/>
        </g>
        <g transform="matrix(12,0,0,12,218.934,453.621)">
            <path d="M0.335,0.01C0.3,0.01 0.268,0.003 0.24,-0.01C0.211,-0.022 0.187,-0.042 0.167,-0.069L0.161,-0.069C0.165,-0.038 0.167,-0.008 0.167,0.02L0.167,0.24L0.086,0.24L0.086,-0.535L0.152,-0.535L0.163,-0.462L0.167,-0.462C0.188,-0.491 0.212,-0.512 0.24,-0.525C0.267,-0.538 0.299,-0.545 0.335,-0.545C0.406,-0.545 0.461,-0.521 0.499,-0.472C0.538,-0.424 0.557,-0.356 0.557,-0.268C0.557,-0.18 0.538,-0.112 0.498,-0.063C0.459,-0.015 0.405,0.01 0.335,0.01ZM0.323,-0.476C0.269,-0.476 0.229,-0.461 0.205,-0.431C0.18,-0.4 0.168,-0.352 0.167,-0.286L0.167,-0.268C0.167,-0.193 0.18,-0.139 0.205,-0.107C0.23,-0.074 0.27,-0.058 0.325,-0.058C0.371,-0.058 0.408,-0.077 0.434,-0.114C0.46,-0.152 0.473,-0.203 0.473,-0.269C0.473,-0.336 0.46,-0.387 0.434,-0.423C0.408,-0.458 0.371,-0.476 0.323,-0.476Z" style="fill:rgb(76,7,2);fill-rule:nonzero;"/>
        </g>
        <g transform="matrix(12,0,0,12,226.288,453.621)">
            <path d="M0.548,-0.268C0.548,-0.181 0.526,-0.113 0.482,-0.064C0.438,-0.015 0.377,0.01 0.3,0.01C0.252,0.01 0.209,-0.001 0.172,-0.024C0.135,-0.046 0.107,-0.079 0.086,-0.121C0.066,-0.163 0.056,-0.212 0.056,-0.268C0.056,-0.355 0.078,-0.423 0.122,-0.472C0.165,-0.521 0.226,-0.545 0.303,-0.545C0.378,-0.545 0.438,-0.52 0.482,-0.47C0.526,-0.42 0.548,-0.353 0.548,-0.268ZM0.14,-0.268C0.14,-0.2 0.154,-0.148 0.181,-0.112C0.208,-0.076 0.249,-0.058 0.302,-0.058C0.355,-0.058 0.395,-0.076 0.423,-0.112C0.45,-0.147 0.464,-0.199 0.464,-0.268C0.464,-0.336 0.45,-0.388 0.423,-0.423C0.395,-0.458 0.354,-0.476 0.301,-0.476C0.248,-0.476 0.208,-0.459 0.181,-0.424C0.154,-0.389 0.14,-0.337 0.14,-0.268Z" style="fill:rgb(76,7,2);fill-rule:nonzero;"/>
        </g>
        <g transform="matrix(12,0,0,12,233.536,453.621)">
            <path d="M0.452,0L0.452,-0.346C0.452,-0.39 0.442,-0.422 0.422,-0.444C0.403,-0.465 0.371,-0.476 0.329,-0.476C0.273,-0.476 0.232,-0.461 0.206,-0.431C0.18,-0.4 0.167,-0.35 0.167,-0.281L0.167,0L0.086,0L0.086,-0.535L0.152,-0.535L0.165,-0.462L0.169,-0.462C0.186,-0.488 0.209,-0.509 0.239,-0.523C0.269,-0.538 0.302,-0.545 0.339,-0.545C0.403,-0.545 0.452,-0.529 0.484,-0.498C0.517,-0.467 0.533,-0.417 0.533,-0.349L0.533,0L0.452,0Z" style="fill:rgb(76,7,2);fill-rule:nonzero;"/>
        </g>
        <g transform="matrix(12,0,0,12,240.901,453.621)">
            <path d="M0.431,-0.146C0.431,-0.096 0.413,-0.058 0.375,-0.031C0.338,-0.004 0.286,0.01 0.219,0.01C0.148,0.01 0.093,-0.001 0.053,-0.024L0.053,-0.099C0.079,-0.086 0.107,-0.076 0.136,-0.068C0.165,-0.061 0.194,-0.057 0.221,-0.057C0.264,-0.057 0.296,-0.064 0.319,-0.077C0.342,-0.091 0.353,-0.111 0.353,-0.139C0.353,-0.16 0.344,-0.178 0.326,-0.193C0.308,-0.207 0.273,-0.225 0.22,-0.245C0.17,-0.264 0.135,-0.28 0.114,-0.294C0.093,-0.308 0.077,-0.323 0.067,-0.341C0.057,-0.358 0.052,-0.379 0.052,-0.404C0.052,-0.447 0.069,-0.482 0.105,-0.507C0.14,-0.532 0.189,-0.545 0.251,-0.545C0.309,-0.545 0.365,-0.533 0.42,-0.51L0.391,-0.444C0.337,-0.466 0.289,-0.477 0.245,-0.477C0.207,-0.477 0.178,-0.471 0.158,-0.459C0.139,-0.447 0.129,-0.43 0.129,-0.409C0.129,-0.395 0.133,-0.383 0.14,-0.373C0.147,-0.362 0.159,-0.353 0.175,-0.344C0.192,-0.335 0.223,-0.321 0.269,-0.304C0.333,-0.281 0.375,-0.258 0.398,-0.234C0.42,-0.211 0.431,-0.181 0.431,-0.146Z" style="fill:rgb(76,7,2);fill-rule:nonzero;"/>
        </g>
        <g transform="matrix(12,0,0,12,246.626,453.621)">
            <path d="M0.548,-0.268C0.548,-0.181 0.526,-0.113 0.482,-0.064C0.438,-0.015 0.377,0.01 0.3,0.01C0.252,0.01 0.209,-0.001 0.172,-0.024C0.135,-0.046 0.107,-0.079 0.086,-0.121C0.066,-0.163 0.056,-0.212 0.056,-0.268C0.056,-0.355 0.078,-0.423 0.122,-0.472C0.165,-0.521 0.226,-0.545 0.303,-0.545C0.378,-0.545 0.438,-0.52 0.482,-0.47C0.526,-0.42 0.548,-0.353 0.548,-0.268ZM0.14,-0.268C0.14,-0.2 0.154,-0.148 0.181,-0.112C0.208,-0.076 0.249,-0.058 0.302,-0.058C0.355,-0.058 0.395,-0.076 0.423,-0.112C0.45,-0.147 0.464,-0.199 0.464,-0.268C0.464,-0.336 0.45,-0.388 0.423,-0.423C0.395,-0.458 0.354,-0.476 0.301,-0.476C0.248,-0.476 0.208,-0.459 0.181,-0.424C0.154,-0.389 0.14,-0.337 0.14,-0.268Z" style="fill:rgb(76,7,2);fill-rule:nonzero;"/>
        </g>
        <g transform="matrix(12,0,0,12,253.874,453.621)">
            <path d="M0.33,-0.545C0.354,-0.545 0.375,-0.543 0.394,-0.539L0.383,-0.464C0.361,-0.469 0.341,-0.471 0.324,-0.471C0.281,-0.471 0.244,-0.454 0.213,-0.418C0.182,-0.383 0.167,-0.34 0.167,-0.287L0.167,0L0.086,0L0.086,-0.535L0.153,-0.535L0.162,-0.436L0.166,-0.436C0.186,-0.471 0.21,-0.498 0.238,-0.517C0.266,-0.535 0.297,-0.545 0.33,-0.545Z" style="fill:rgb(76,7,2);fill-rule:nonzero;"/>
        </g>
        <g transform="matrix(12,0,0,12,258.532,453.621)">
            <path d="M0.312,0.01C0.233,0.01 0.17,-0.014 0.125,-0.063C0.079,-0.111 0.056,-0.178 0.056,-0.263C0.056,-0.349 0.077,-0.418 0.12,-0.469C0.162,-0.52 0.219,-0.545 0.291,-0.545C0.358,-0.545 0.411,-0.523 0.45,-0.479C0.489,-0.435 0.509,-0.376 0.509,-0.304L0.509,-0.253L0.14,-0.253C0.142,-0.19 0.158,-0.142 0.188,-0.11C0.218,-0.077 0.26,-0.061 0.315,-0.061C0.373,-0.061 0.43,-0.073 0.486,-0.097L0.486,-0.025C0.457,-0.013 0.43,-0.004 0.405,0.002C0.379,0.007 0.348,0.01 0.312,0.01ZM0.29,-0.477C0.247,-0.477 0.213,-0.463 0.187,-0.435C0.162,-0.407 0.147,-0.368 0.142,-0.319L0.422,-0.319C0.422,-0.37 0.41,-0.409 0.388,-0.436C0.365,-0.463 0.332,-0.477 0.29,-0.477Z" style="fill:rgb(76,7,2);fill-rule:nonzero;"/>
        </g>
        <g transform="matrix(12,0,0,12,265.264,453.621)">
            <path d="M0.45,-0.072L0.446,-0.072C0.408,-0.017 0.352,0.01 0.278,0.01C0.208,0.01 0.153,-0.014 0.115,-0.062C0.076,-0.11 0.056,-0.178 0.056,-0.266C0.056,-0.354 0.076,-0.423 0.115,-0.472C0.154,-0.521 0.208,-0.545 0.278,-0.545C0.35,-0.545 0.406,-0.519 0.445,-0.466L0.451,-0.466L0.448,-0.504L0.446,-0.542L0.446,-0.76L0.527,-0.76L0.527,0L0.461,0L0.45,-0.072ZM0.288,-0.058C0.343,-0.058 0.384,-0.073 0.408,-0.103C0.433,-0.133 0.446,-0.182 0.446,-0.249L0.446,-0.266C0.446,-0.342 0.433,-0.396 0.408,-0.428C0.383,-0.461 0.342,-0.477 0.287,-0.477C0.24,-0.477 0.203,-0.459 0.178,-0.422C0.153,-0.385 0.14,-0.333 0.14,-0.265C0.14,-0.197 0.153,-0.145 0.178,-0.11C0.203,-0.076 0.24,-0.058 0.288,-0.058Z" style="fill:rgb(76,7,2);fill-rule:nonzero;"/>
        </g>
        <g transform="matrix(12,0,0,12,275.735,453.621)">
            <path d="M0.335,-0.544C0.405,-0.544 0.46,-0.52 0.499,-0.472C0.538,-0.424 0.557,-0.356 0.557,-0.268C0.557,-0.18 0.538,-0.112 0.498,-0.063C0.459,-0.015 0.405,0.01 0.335,0.01C0.3,0.01 0.268,0.003 0.24,-0.01C0.211,-0.022 0.187,-0.042 0.167,-0.069L0.161,-0.069L0.144,0L0.086,0L0.086,-0.76L0.167,-0.76L0.167,-0.575C0.167,-0.534 0.166,-0.497 0.163,-0.464L0.167,-0.464C0.205,-0.517 0.261,-0.544 0.335,-0.544ZM0.323,-0.476C0.268,-0.476 0.228,-0.46 0.204,-0.428C0.179,-0.397 0.167,-0.343 0.167,-0.268C0.167,-0.193 0.18,-0.139 0.205,-0.107C0.23,-0.074 0.27,-0.058 0.325,-0.058C0.375,-0.058 0.412,-0.076 0.437,-0.113C0.461,-0.149 0.473,-0.201 0.473,-0.269C0.473,-0.339 0.461,-0.391 0.437,-0.425C0.412,-0.459 0.374,-0.476 0.323,-0.476Z" style="fill:rgb(76,7,2);fill-rule:nonzero;"/>
        </g>
        <g transform="matrix(12,0,0,12,282.848,453.621)">
            <path d="M0.001,-0.535L0.088,-0.535L0.205,-0.23C0.231,-0.16 0.247,-0.11 0.253,-0.079L0.257,-0.079C0.261,-0.096 0.27,-0.124 0.283,-0.164C0.297,-0.205 0.341,-0.328 0.416,-0.535L0.503,-0.535L0.273,0.074C0.25,0.134 0.224,0.177 0.193,0.202C0.163,0.228 0.125,0.24 0.081,0.24C0.056,0.24 0.032,0.237 0.008,0.232L0.008,0.167C0.026,0.171 0.046,0.173 0.068,0.173C0.124,0.173 0.163,0.142 0.187,0.079L0.217,0.003L0.001,-0.535Z" style="fill:rgb(76,7,2);fill-rule:nonzero;"/>
        </g>
        <g transform="matrix(12,0,0,12,292.012,453.621)">
            <path d="M0.404,-0.65C0.325,-0.65 0.263,-0.624 0.218,-0.572C0.173,-0.519 0.15,-0.448 0.15,-0.357C0.15,-0.264 0.172,-0.191 0.216,-0.14C0.259,-0.089 0.322,-0.064 0.403,-0.064C0.453,-0.064 0.509,-0.073 0.573,-0.091L0.573,-0.018C0.524,0 0.463,0.01 0.39,0.01C0.285,0.01 0.204,-0.022 0.147,-0.086C0.09,-0.15 0.061,-0.24 0.061,-0.358C0.061,-0.431 0.075,-0.496 0.102,-0.551C0.13,-0.607 0.17,-0.649 0.221,-0.679C0.273,-0.709 0.334,-0.724 0.405,-0.724C0.48,-0.724 0.545,-0.71 0.601,-0.683L0.566,-0.612C0.512,-0.637 0.458,-0.65 0.404,-0.65Z" style="fill:rgb(76,7,2);fill-rule:nonzero;"/>
        </g>
        <g transform="matrix(12,0,0,12,299.583,453.621)">
            <path d="M0.452,0L0.452,-0.346C0.452,-0.39 0.442,-0.422 0.422,-0.444C0.403,-0.465 0.371,-0.476 0.329,-0.476C0.273,-0.476 0.232,-0.461 0.206,-0.43C0.18,-0.4 0.167,-0.349 0.167,-0.28L0.167,0L0.086,0L0.086,-0.76L0.167,-0.76L0.167,-0.53C0.167,-0.502 0.166,-0.479 0.163,-0.461L0.168,-0.461C0.184,-0.487 0.207,-0.507 0.236,-0.522C0.266,-0.537 0.299,-0.544 0.337,-0.544C0.402,-0.544 0.451,-0.528 0.484,-0.497C0.517,-0.466 0.533,-0.417 0.533,-0.349L0.533,0L0.452,0Z" style="fill:rgb(76,7,2);fill-rule:nonzero;"/>
        </g>
        <g transform="matrix(12,0,0,12,306.948,453.621)">
            <path d="M0.167,0L0.086,0L0.086,-0.535L0.167,-0.535L0.167,0ZM0.079,-0.68C0.079,-0.699 0.084,-0.712 0.093,-0.721C0.102,-0.73 0.113,-0.734 0.127,-0.734C0.14,-0.734 0.151,-0.729 0.161,-0.721C0.17,-0.712 0.175,-0.698 0.175,-0.68C0.175,-0.662 0.17,-0.648 0.161,-0.639C0.151,-0.63 0.14,-0.626 0.127,-0.626C0.113,-0.626 0.102,-0.63 0.093,-0.639C0.084,-0.648 0.079,-0.662 0.079,-0.68Z" style="fill:rgb(76,7,2);fill-rule:nonzero;"/>
        </g>
        <g transform="matrix(12,0,0,12,309.983,453.621)">
            <rect x="0.086" y="-0.76" width="0.081" height="0.76" style="fill:rgb(76,7,2);fill-rule:nonzero;"/>
        </g>
        <g transform="matrix(12,0,0,12,313.018,453.621)">
            <rect x="0.086" y="-0.76" width="0.081" height="0.76" style="fill:rgb(76,7,2);fill-rule:nonzero;"/>
        </g>
        <g transform="matrix(12,0,0,12,316.053,453.621)">
            <path d="M0.167,0L0.086,0L0.086,-0.535L0.167,-0.535L0.167,0ZM0.079,-0.68C0.079,-0.699 0.084,-0.712 0.093,-0.721C0.102,-0.73 0.113,-0.734 0.127,-0.734C0.14,-0.734 0.151,-0.729 0.161,-0.721C0.17,-0.712 0.175,-0.698 0.175,-0.68C0.175,-0.662 0.17,-0.648 0.161,-0.639C0.151,-0.63 0.14,-0.626 0.127,-0.626C0.113,-0.626 0.102,-0.63 0.093,-0.639C0.084,-0.648 0.079,-0.662 0.079,-0.68Z" style="fill:rgb(76,7,2);fill-rule:nonzero;"/>
        </g>
        <g transform="matrix(12,0,0,12,319.088,453.621)">
            <path d="M0.156,-0.714L0.136,-0.456L0.085,-0.456L0.065,-0.714L0.156,-0.714Z" style="fill:rgb(76,7,2);fill-rule:nonzero;"/>
        </g>
        <g transform="matrix(12,0,0,12,321.385,453.621)">
            <path d="M0.431,-0.146C0.431,-0.096 0.413,-0.058 0.375,-0.031C0.338,-0.004 0.286,0.01 0.219,0.01C0.148,0.01 0.093,-0.001 0.053,-0.024L0.053,-0.099C0.079,-0.086 0.107,-0.076 0.136,-0.068C0.165,-0.061 0.194,-0.057 0.221,-0.057C0.264,-0.057 0.296,-0.064 0.319,-0.077C0.342,-0.091 0.353,-0.111 0.353,-0.139C0.353,-0.16 0.344,-0.178 0.326,-0.193C0.308,-0.207 0.273,-0.225 0.22,-0.245C0.17,-0.264 0.135,-0.28 0.114,-0.294C0.093,-0.308 0.077,-0.323 0.067,-0.341C0.057,-0.358 0.052,-0.379 0.052,-0.404C0.052,-0.447 0.069,-0.482 0.105,-0.507C0.14,-0.532 0.189,-0.545 0.251,-0.545C0.309,-0.545 0.365,-0.533 0.42,-0.51L0.391,-0.444C0.337,-0.466 0.289,-0.477 0.245,-0.477C0.207,-0.477 0.178,-0.471 0.158,-0.459C0.139,-0.447 0.129,-0.43 0.129,-0.409C0.129,-0.395 0.133,-0.383 0.14,-0.373C0.147,-0.362 0.159,-0.353 0.175,-0.344C0.192,-0.335 0.223,-0.321 0.269,-0.304C0.333,-0.281 0.375,-0.258 0.398,-0.234C0.42,-0.211 0.431,-0.181 0.431,-0.146Z" style="fill:rgb(76,7,2);fill-rule:nonzero;"/>
        </g>
        <g transform="matrix(12,0,0,12,327.11,453.621)">
            <path d="M0.18,-0.362L0.12,-0.362L0.12,-0.662L0.018,-0.662L0.018,-0.714L0.283,-0.714L0.283,-0.662L0.18,-0.662L0.18,-0.362ZM0.473,-0.362L0.375,-0.635L0.371,-0.635L0.374,-0.572L0.374,-0.362L0.316,-0.362L0.316,-0.714L0.407,-0.714L0.503,-0.441L0.602,-0.714L0.69,-0.714L0.69,-0.362L0.628,-0.362L0.628,-0.567L0.631,-0.634L0.627,-0.634L0.524,-0.362L0.473,-0.362Z" style="fill:rgb(76,7,2);fill-rule:nonzero;"/>
        </g>
    </g>
</svg>
